HIERARCHY
ROOT Hips
{
	OFFSET 0.000000 0.000000 0.000000
	CHANNELS 6 Xposition Yposition Zposition Zrotation Yrotation Xrotation 
	JOINT LeftUpLeg_virtual
	{
		OFFSET 0.000000 0.000000 0.000000
		CHANNELS 3 Zrotation Yrotation Xrotation
		JOINT LeftUpLeg
		{
			OFFSET 8.479694 -4.795517 -0.379053
			CHANNELS 3 Zrotation Yrotation Xrotation
			JOINT LeftLeg
			{
				OFFSET 0.485052 -32.551468 0.112863
				CHANNELS 3 Zrotation Yrotation Xrotation
				JOINT LeftFoot
				{
					OFFSET 0.438033 -32.635670 -3.012641
					CHANNELS 3 Zrotation Yrotation Xrotation
					JOINT LeftToeBase
					{
						OFFSET 0.970169 -13.225353 11.864223
						CHANNELS 3 Zrotation Yrotation Xrotation
						End Site
						{
							OFFSET 0.000000 0.000000 0.000000
						}
					}
				}
			}
		}
	}
	JOINT RightUpLeg_virtual
	{
		OFFSET 0.000000 0.000000 0.000000
		CHANNELS 3 Zrotation Yrotation Xrotation
		JOINT RightUpLeg
		{
			OFFSET -8.479694 -4.795517 -0.379053
			CHANNELS 3 Zrotation Yrotation Xrotation
			JOINT RightLeg
			{
				OFFSET -0.484100 -32.551483 0.112903
				CHANNELS 3 Zrotation Yrotation Xrotation
				JOINT RightFoot
				{
					OFFSET -0.438985 -32.635651 -3.012681
					CHANNELS 3 Zrotation Yrotation Xrotation
					JOINT RightToeBase
					{
						OFFSET -0.970169 -13.225354 11.864223
						CHANNELS 3 Zrotation Yrotation Xrotation
						End Site
						{
							OFFSET 0.000000 0.000000 0.000000
						}
					}
				}
			}
		}
	}
	JOINT Spine_virtual
	{
		OFFSET 0.000000 0.000000 0.000000
		CHANNELS 3 Zrotation Yrotation Xrotation
		JOINT Spine
		{
			OFFSET 0.000000 7.722015 1.166203
			CHANNELS 3 Zrotation Yrotation Xrotation
			JOINT Spine1
			{
				OFFSET 0.000000 12.024086 0.248766
				CHANNELS 3 Zrotation Yrotation Xrotation
				JOINT Spine2
				{
					OFFSET -0.000000 11.503036 -0.491240
					CHANNELS 3 Zrotation Yrotation Xrotation
					JOINT Neck_virtual
					{
						OFFSET 0.000000 0.000000 0.000000
						CHANNELS 3 Zrotation Yrotation Xrotation
						JOINT Neck
						{
							OFFSET 0.000000 18.430687 -3.123054
							CHANNELS 3 Zrotation Yrotation Xrotation
							JOINT Head
							{
								OFFSET -0.000000 9.051071 1.034021
								CHANNELS 3 Zrotation Yrotation Xrotation
								End Site
								{
									OFFSET 0.000000 0.000000 0.000000
								}
							}
						}
					}
					JOINT LeftShoulder_virtual
					{
						OFFSET 0.000000 0.000000 0.000000
						CHANNELS 3 Zrotation Yrotation Xrotation
						JOINT LeftShoulder
						{
							OFFSET 6.197824 13.665230 -4.064723
							CHANNELS 3 Zrotation Yrotation Xrotation
							JOINT LeftArm
							{
								OFFSET 7.778132 -0.187073 -1.709282
								CHANNELS 3 Zrotation Yrotation Xrotation
								JOINT LeftForeArm
								{
									OFFSET 21.954697 0.000000 -2.041093
									CHANNELS 3 Zrotation Yrotation Xrotation
									JOINT LeftHand
									{
										OFFSET 22.992908 0.000000 -0.870901
										CHANNELS 3 Zrotation Yrotation Xrotation
										End Site
										{
											OFFSET 0.000000 0.000000 0.000000
										}
									}
								}
							}
						}
					}
					JOINT RightShoulder_virtual
					{
						OFFSET 0.000000 0.000000 0.000000
						CHANNELS 3 Zrotation Yrotation Xrotation
						JOINT RightShoulder
						{
							OFFSET -6.197824 13.665230 -4.064723
							CHANNELS 3 Zrotation Yrotation Xrotation
							JOINT RightArm
							{
								OFFSET -7.778132 -0.187073 -1.709282
								CHANNELS 3 Zrotation Yrotation Xrotation
								JOINT RightForeArm
								{
									OFFSET -21.954697 0.000000 -2.041093
									CHANNELS 3 Zrotation Yrotation Xrotation
									JOINT RightHand
									{
										OFFSET -22.992908 0.000000 -0.870901
										CHANNELS 3 Zrotation Yrotation Xrotation
										End Site
										{
											OFFSET 0.000000 0.000000 0.000000
										}
									}
								}
							}
						}
					}
				}
			}
		}
	}
}
MOTION
Frames: 11
Frame Time: 0.033333
4.453768 76.577904 -4.353352 178.850020 3.825023 -179.318216 -5.301366 -0.071693 32.801519 7.154496 5.106493 -71.675520 1.697166 -1.121739 56.691038 -6.445447 -0.420063 -8.714346 0.000000 0.000000 0.000000 0.716708 -5.573860 31.425649 -5.172334 -5.547110 -70.749736 1.351882 -0.654474 62.276504 8.397309 3.240940 -7.822174 0.000000 0.000000 0.000000 4.981527 -6.247927 57.773244 -6.421618 -0.063501 29.449184 1.487354 -2.083999 3.520323 0.082590 -0.041655 0.103184 3.036610 -2.111402 5.386440 11.016494 1.236591 -21.348574 0.000000 0.000000 0.000000 2.708805 -0.977353 0.550837 -8.779091 -14.268485 -5.718870 -19.770922 -72.112871 -12.640528 -1.194470 -36.796333 1.196555 0.000000 0.000000 0.000000 -0.344960 0.323028 -0.105607 5.557421 21.236615 -7.884807 -15.142432 55.577215 -49.032757 -8.461953 37.749919 -5.779420 0.000000 0.000000 0.000000 
4.432917 76.603447 -4.156773 178.851714 3.744676 -179.242373 -5.495219 -0.077765 33.184146 7.111056 5.336499 -72.163981 1.941551 -1.061943 56.584600 -6.509943 -0.401810 -9.005866 0.000000 0.000000 0.000000 0.631375 -5.626672 31.754571 -5.174957 -5.470271 -71.427168 1.290150 -0.719278 62.175205 8.204459 3.579852 -7.421777 0.000000 0.000000 0.000000 4.737845 -6.459035 58.614020 -6.643182 -0.066544 29.313748 1.481519 -1.996380 3.639125 0.057441 -0.093357 0.118294 2.938794 -2.242042 5.593543 11.119742 1.523104 -22.080224 0.000000 0.000000 0.000000 2.727045 -1.087764 0.788770 -8.101524 -13.665553 -5.544106 -21.612361 -71.427714 -11.140144 -1.193308 -35.966021 1.496412 0.000000 0.000000 0.000000 -0.386569 0.271985 0.164573 6.018525 20.275405 -7.824546 -10.016457 55.464175 -49.199178 -8.273417 39.238955 -6.076553 0.000000 0.000000 0.000000 
4.344833 76.750717 -3.911050 178.893350 3.510830 -179.202949 -5.449390 -0.071687 33.174065 7.034126 5.368924 -72.099340 2.202663 -0.935924 56.017776 -6.774171 -0.410101 -9.008233 0.000000 0.000000 0.000000 0.798171 -5.516929 31.772568 -5.420856 -5.419398 -71.515694 1.256204 -0.667830 61.703601 7.867549 3.924070 -6.935392 0.000000 0.000000 0.000000 5.222955 -6.679184 58.939007 -6.896172 -0.077286 29.101927 1.345141 -2.081392 3.756842 0.084229 -0.109324 0.084112 2.845894 -2.395523 5.696358 10.929063 1.801158 -22.679245 0.000000 0.000000 0.000000 2.700165 -1.300024 1.000839 -7.739240 -13.134231 -5.350951 -23.364805 -70.583482 -9.703861 -1.147490 -35.046459 1.758545 0.000000 0.000000 0.000000 -0.409661 -0.021949 0.379011 6.612665 19.280009 -7.698375 -4.498691 55.415852 -47.782275 -8.323823 41.319103 -6.951978 0.000000 0.000000 0.000000 
4.136490 76.955559 -3.647139 178.985176 2.940541 -179.119034 -5.274366 -0.194439 32.560898 6.996421 5.139796 -71.464344 2.475043 -0.764386 55.307426 -7.219782 -0.474958 -8.726659 0.000000 0.000000 0.000000 1.050496 -5.428426 31.303235 -5.755788 -5.483812 -70.930606 1.243102 -0.442653 60.965094 7.437711 4.190153 -6.405392 0.000000 0.000000 0.000000 5.877995 -6.934149 58.366097 -7.135037 -0.339057 28.802829 1.181863 -2.081887 3.896687 0.043040 -0.099035 0.103211 2.650329 -2.458099 5.960524 10.512673 2.075678 -23.250838 0.000000 0.000000 0.000000 2.590713 -1.301053 1.147152 -7.793260 -12.466749 -5.281759 -26.175421 -69.353427 -7.269775 -0.959314 -34.388500 1.856810 0.000000 0.000000 0.000000 -0.538069 0.138069 0.540494 7.342867 18.324298 -7.248645 0.542434 55.264526 -45.321269 -8.129793 43.825390 -7.254723 0.000000 0.000000 0.000000 
3.814266 77.204269 -3.382328 179.109840 2.295017 -179.075471 -5.114918 -0.433136 31.458294 7.069141 4.638288 -70.312959 2.754158 -0.561467 54.641718 -7.763949 -0.585302 -8.215936 0.000000 0.000000 0.000000 1.277325 -5.332693 30.408419 -6.082302 -5.592811 -69.665416 1.248142 -0.066540 60.023573 6.987941 4.347487 -5.819183 0.000000 0.000000 0.000000 6.659603 -7.232155 57.183949 -7.215624 -0.651586 28.329862 1.057526 -2.058474 3.981170 0.020094 -0.066464 0.122102 2.401527 -2.476560 5.928148 9.912841 2.380858 -23.558349 0.000000 0.000000 0.000000 2.440406 -1.315383 1.154539 -8.110167 -11.711287 -5.039432 -28.668104 -67.774021 -4.899756 -0.905923 -34.002352 2.209268 0.000000 0.000000 0.000000 -0.712110 0.180136 0.530364 7.878115 17.703744 -6.878153 5.198257 55.164330 -41.929609 -7.982901 46.039993 -7.491124 0.000000 0.000000 0.000000 
3.480736 77.493385 -3.087096 179.234942 1.822473 -179.071974 -5.071843 -0.635821 30.075840 7.298147 3.895228 -68.910735 3.022955 -0.355482 53.994076 -8.316764 -0.769150 -7.517163 0.000000 0.000000 0.000000 1.476034 -5.215078 29.224354 -6.687837 -5.107598 -67.978783 1.269046 0.248134 58.886940 6.586238 4.421197 -5.201390 0.000000 0.000000 0.000000 7.384626 -7.283686 55.513862 -7.369268 -0.937191 27.804701 0.956301 -1.983045 3.994224 0.071033 -0.016570 0.115196 2.158929 -2.534695 5.987986 9.252305 2.703350 -23.902435 0.000000 0.000000 0.000000 2.227791 -1.233880 1.115372 -8.730597 -10.940935 -4.498556 -30.976486 -65.949465 -2.623299 -0.481355 -34.151991 2.200610 0.000000 0.000000 0.000000 -0.884229 0.296265 0.524444 8.197463 17.420157 -6.381309 8.834035 54.828435 -38.741595 -7.986351 48.210358 -7.697091 0.000000 0.000000 0.000000 
3.172456 77.812317 -2.854033 179.367844 1.669351 -179.076768 -5.054575 -0.626555 28.779412 7.586402 3.133840 -67.510771 3.223586 -0.104008 53.332036 -8.797342 -1.038936 -6.834882 0.000000 0.000000 0.000000 1.509422 -5.440697 28.038311 -7.510413 -3.959032 -66.145369 1.318648 0.506591 57.584580 6.347561 4.489844 -4.562863 0.000000 0.000000 0.000000 8.149872 -7.072610 53.668942 -7.520979 -1.199309 27.212956 0.849835 -1.884951 4.013220 0.059760 0.024545 0.126472 2.107861 -2.438112 5.944561 8.678093 2.499523 -24.470018 0.000000 0.000000 0.000000 2.166500 -1.191736 1.168425 -9.490182 -10.360449 -4.388382 -33.542837 -63.904609 -0.146954 -0.172018 -34.580469 2.414909 0.000000 0.000000 0.000000 -0.945099 0.392467 0.410062 8.640470 17.203131 -5.423640 11.231682 54.418958 -36.074027 -8.058426 50.295160 -7.864421 0.000000 0.000000 0.000000 
2.931852 78.168030 -2.639188 179.503396 1.359934 -179.106767 -4.962237 -0.543123 27.717326 8.000425 2.395419 -66.262773 3.405306 -0.059276 52.484410 -9.089574 -1.287582 -6.115328 0.000000 0.000000 0.000000 1.526028 -5.492430 27.063045 -7.918360 -3.179967 -64.302051 1.383280 0.718446 56.020788 6.276192 4.602424 -3.898371 0.000000 0.000000 0.000000 8.828192 -6.887646 51.921773 -7.508943 -1.469191 26.484467 0.861616 -1.846411 4.068999 0.056758 -0.002703 0.153129 2.083489 -2.325682 5.811328 8.075055 2.827381 -24.714148 0.000000 0.000000 0.000000 2.199645 -1.058303 1.146353 -10.405110 -10.027297 -4.184492 -36.572501 -61.968291 2.343365 0.096953 -35.063667 2.573675 0.000000 0.000000 0.000000 -0.943995 0.342501 0.340702 8.934331 17.275143 -5.048165 14.215400 54.035894 -33.068873 -8.476007 52.428693 -8.252315 0.000000 0.000000 0.000000 
2.708449 78.530762 -2.445426 179.650299 1.319572 -179.130891 -4.830288 -0.495202 26.920265 8.296397 1.804695 -65.139487 3.580652 -0.019965 51.501426 -9.138864 -1.390219 -5.465688 0.000000 0.000000 0.000000 1.538722 -5.256024 26.272961 -8.031898 -2.921199 -62.568201 1.421391 1.008722 54.282669 6.300876 4.721069 -3.180066 0.000000 0.000000 0.000000 8.943885 -6.712669 50.323270 -7.443934 -1.632497 25.845364 0.998039 -1.678433 3.949490 0.092006 0.072775 0.096588 1.987464 -2.310676 5.778194 7.755647 2.575061 -24.972613 0.000000 0.000000 0.000000 2.001449 -0.927108 1.116177 -11.635320 -9.983384 -3.793473 -39.159271 -60.108151 4.352355 0.422252 -35.649165 2.759703 0.000000 0.000000 0.000000 -1.077957 0.534747 0.438646 9.244642 17.359281 -4.209419 16.519869 53.755559 -30.861752 -9.544645 54.907191 -9.244170 0.000000 0.000000 0.000000 
2.467601 78.868713 -2.278574 179.777505 1.292849 -179.136778 -4.655419 -0.717911 26.329614 8.401165 1.129698 -64.076586 3.780470 0.123453 50.448228 -8.970227 -1.248927 -4.924612 0.000000 0.000000 0.000000 1.531335 -5.189296 25.588957 -8.068389 -2.916838 -60.977170 1.452093 1.262760 52.493187 6.445671 4.893297 -2.451422 0.000000 0.000000 0.000000 9.298919 -6.773050 48.587838 -7.298593 -1.727045 25.313554 0.947382 -1.549500 3.984843 0.055383 0.059572 0.101984 1.979243 -2.096340 5.724765 7.246841 2.814724 -25.432395 0.000000 0.000000 0.000000 2.040232 -0.728086 1.224739 -12.847068 -10.071178 -3.467768 -41.989363 -58.531969 5.994196 0.652646 -36.336166 2.992461 0.000000 0.000000 0.000000 -1.024814 0.787721 0.388646 9.723334 17.344854 -3.414242 18.580908 53.470819 -29.162230 -10.583536 57.752398 -10.218571 0.000000 0.000000 0.000000 
2.138502 79.178101 -2.114411 179.846667 1.132837 -179.161299 -4.467318 -1.161472 25.763598 8.363066 0.371134 -62.964584 3.993347 0.277698 49.363669 -8.702309 -0.915259 -4.463193 0.000000 0.000000 0.000000 1.494362 -5.369819 24.920553 -8.120734 -3.021420 -59.446408 1.479120 1.477493 50.869299 6.668347 5.138274 -1.777510 0.000000 0.000000 0.000000 9.494912 -7.052428 46.675290 -7.153566 -1.744229 24.923097 0.940964 -1.439808 4.088807 0.087699 -0.002510 0.153606 1.994835 -2.040647 5.563555 7.246486 2.494345 -25.843023 0.000000 0.000000 0.000000 2.024137 -0.507899 1.081849 -13.886391 -10.300597 -2.986705 -44.805392 -56.600678 7.371269 1.302715 -37.214330 2.833235 0.000000 0.000000 0.000000 -1.070277 1.080887 0.390400 10.097696 17.278774 -2.628990 20.860468 53.215127 -27.740909 -12.771804 60.579892 -12.370273 0.000000 0.000000 0.000000 
